<svg width="1096" height="1804" viewBox="0 0 1096 1804" fill="none" xmlns="http://www.w3.org/2000/svg">
<path d="M1095 1803H1V574.139C137.763 -190.046 980.292 -190.046 1095 574.139V1803Z" fill="#764E1E"/>
<path d="M1073 1035C1073 1053.23 1058.67 1068 1041 1068C1023.33 1068 1009 1053.23 1009 1035C1009 1016.77 1023.33 1002 1041 1002C1058.67 1002 1073 1016.77 1073 1035Z" fill="#B48D50"/>
<path d="M240 1143H343V1575H240V1143Z" fill="#764E1E"/>
<path d="M349 1143H452V1575H349V1143Z" fill="#764E1E"/>
<path d="M461 1143H564V1575H461V1143Z" fill="#764E1E"/>
<path d="M573 1143H676V1575H573V1143Z" fill="#764E1E"/>
<path d="M685 1143H788V1575H685V1143Z" fill="#764E1E"/>
<path d="M797 1143H900V1575H797V1143Z" fill="#764E1E"/>
<path d="M929 902.62H211V433.02C300.759 140.993 853.717 140.993 929 433.02V902.62Z" fill="#764E1E"/>
<path d="M900 879.645H229V440.715C312.883 167.762 829.645 167.762 900 440.715V879.645Z" fill="#764E1E"/>
<path d="M1 1803H1095M1 1803V1804M1 1803V574.139C137.763 -190.046 980.292 -190.046 1095 574.139V1803M1095 1803V1804M186 1118.48L187.365 1600.5H951.635L953 1118.49L186 1118M211 902.62H929M211 902.62V903M211 902.62V433.02C300.759 140.993 853.717 140.993 929 433.02V902.62M929 902.62V903M229 879.645H900M229 879.645V880M229 879.645V440.715C312.883 167.762 829.645 167.762 900 440.715V879.645M900 879.645V880M333 880.005V303.996M485.002 880V241M637.315 874.009L636.5 241.001M801 880.011V303.989M218.256 1581.54L217 1137.44L923 1137.45L921.744 1581.54H218.256ZM1073 1035C1073 1053.23 1058.67 1068 1041 1068C1023.33 1068 1009 1053.23 1009 1035C1009 1016.77 1023.33 1002 1041 1002C1058.67 1002 1073 1016.77 1073 1035ZM240 1143H343V1575H240V1143ZM349 1143H452V1575H349V1143ZM461 1143H564V1575H461V1143ZM573 1143H676V1575H573V1143ZM685 1143H788V1575H685V1143ZM797 1143H900V1575H797V1143Z" stroke="#030201"/>
</svg>
